<svg width="16" height="16" viewBox="0 0 16 16" fill="none" xmlns="http://www.w3.org/2000/svg">
    <path class="path" fill-rule="evenodd" clip-rule="evenodd" d="M1.51971 1.51971C1.97699 1.06243 2.69597 1.14033 3.12247 1.56684L7.95438 6.39875L12.7863 1.56684C13.2128 1.14033 13.9318 1.06243 14.3891 1.51971C14.8463 1.97699 14.7684 2.69597 14.3419 3.12247L9.51002 7.95438L14.3419 12.7863C14.7684 13.2128 14.8463 13.9318 14.3891 14.3891C13.9318 14.8463 13.2128 14.7684 12.7863 14.3419L7.95438 9.51002L3.12247 14.3419C2.69597 14.7684 1.97699 14.8463 1.51971 14.3891C1.06243 13.9318 1.14033 13.2128 1.56684 12.7863L6.39875 7.95438L1.56684 3.12247C1.14033 2.69597 1.06243 1.97699 1.51971 1.51971Z" fill="#6b7280"/>
</svg>
